# MagicaVoxel @ Ephtracy

# material
mtllib magika.mtl
usemtl palette

# normals
vn -1 0 0
vn 1 0 0
vn 0 0 1
vn 0 0 -1
vn 0 -1 0
vn 0 1 0

# texcoords
vt 0.818359 0.5
vt 0.822266 0.5

# verts
v -2.5 0 12.5
v -2.5 0 -12.5
v -2.5 1 12.5
v -2.5 1 11.5
v -2.5 1 5.5
v -2.5 1 4.5
v -2.5 1 0.5
v -2.5 1 -0.5
v -2.5 1 -3.5
v -2.5 1 -4.5
v -2.5 1 -6.5
v -2.5 1 -7.5
v -2.5 2 12.5
v -2.5 2 11.5
v -2.5 2 5.5
v -2.5 2 4.5
v -2.5 2 0.5
v -2.5 2 -0.5
v -2.5 2 -3.5
v -2.5 2 -4.5
v -2.5 2 -6.5
v -2.5 2 -7.5
v -2.5 2 -12.5
v 2.5 0 12.5
v 2.5 0 -12.5
v 2.5 1 10.5
v 2.5 1 9.5
v 2.5 1 4.5
v 2.5 1 3.5
v 2.5 1 -1.5
v 2.5 1 -2.5
v 2.5 2 12.5
v 2.5 2 10.5
v 2.5 2 9.5
v 2.5 2 4.5
v 2.5 2 3.5
v 2.5 2 -1.5
v 2.5 2 -2.5
v 2.5 2 -12.5
v -2.5 0 12.5
v -2.5 1 12.5
v -2.5 2 12.5
v -1.5 1 12.5
v -1.5 2 12.5
v 2.5 0 12.5
v 2.5 2 12.5
v -2.5 0 -12.5
v -2.5 2 -12.5
v 2.5 0 -12.5
v 2.5 2 -12.5
v -2.5 0 12.5
v 2.5 0 12.5
v -2.5 0 -12.5
v 2.5 0 -12.5
v -2.5 2 12.5
v -1.5 2 12.5
v 2.5 2 12.5
v -2.5 2 11.5
v -1.5 2 11.5
v -0.5 2 11.5
v 0.5 2 11.5
v -0.5 2 10.5
v 0.5 2 10.5
v 1.5 2 10.5
v 2.5 2 10.5
v 1.5 2 9.5
v 2.5 2 9.5
v 0.5 2 6.5
v 1.5 2 6.5
v -2.5 2 5.5
v -1.5 2 5.5
v 0.5 2 5.5
v 1.5 2 5.5
v -2.5 2 4.5
v -1.5 2 4.5
v 1.5 2 4.5
v 2.5 2 4.5
v 1.5 2 3.5
v 2.5 2 3.5
v -2.5 2 0.5
v -1.5 2 0.5
v -2.5 2 -0.5
v -1.5 2 -0.5
v 1.5 2 -1.5
v 2.5 2 -1.5
v 1.5 2 -2.5
v 2.5 2 -2.5
v -2.5 2 -3.5
v -1.5 2 -3.5
v -2.5 2 -4.5
v -1.5 2 -4.5
v -0.5 2 -5.5
v 0.5 2 -5.5
v -2.5 2 -6.5
v -1.5 2 -6.5
v -0.5 2 -6.5
v 0.5 2 -6.5
v -2.5 2 -7.5
v -1.5 2 -7.5
v 0.5 2 -8.5
v 1.5 2 -8.5
v 0.5 2 -9.5
v 1.5 2 -9.5
v -1.5 2 -10.5
v -0.5 2 -10.5
v -1.5 2 -11.5
v -0.5 2 -11.5
v -2.5 2 -12.5
v 2.5 2 -12.5

# faces
f 3/2/1 2/2/1 1/2/1
f 4/2/1 2/2/1 3/2/1
f 5/2/1 2/2/1 4/2/1
f 6/2/1 2/2/1 5/2/1
f 7/2/1 2/2/1 6/2/1
f 8/2/1 2/2/1 7/2/1
f 9/2/1 2/2/1 8/2/1
f 10/2/1 2/2/1 9/2/1
f 11/2/1 2/2/1 10/2/1
f 12/2/1 2/2/1 11/2/1
f 13/1/1 4/1/1 3/1/1
f 14/2/1 5/2/1 4/2/1
f 14/1/1 4/1/1 13/1/1
f 15/1/1 6/1/1 5/1/1
f 15/2/1 5/2/1 14/2/1
f 16/2/1 7/2/1 6/2/1
f 16/1/1 6/1/1 15/1/1
f 17/1/1 8/1/1 7/1/1
f 17/2/1 7/2/1 16/2/1
f 18/2/1 9/2/1 8/2/1
f 18/1/1 8/1/1 17/1/1
f 19/1/1 10/1/1 9/1/1
f 19/2/1 9/2/1 18/2/1
f 20/2/1 11/2/1 10/2/1
f 20/1/1 10/1/1 19/1/1
f 21/1/1 12/1/1 11/1/1
f 21/2/1 11/2/1 20/2/1
f 22/2/1 2/2/1 12/2/1
f 22/1/1 12/1/1 21/1/1
f 23/2/1 2/2/1 22/2/1
f 24/2/2 25/2/2 26/2/2
f 26/2/2 25/2/2 27/2/2
f 27/2/2 25/2/2 28/2/2
f 28/2/2 25/2/2 29/2/2
f 29/2/2 25/2/2 30/2/2
f 30/2/2 25/2/2 31/2/2
f 24/2/2 26/2/2 32/2/2
f 26/1/2 27/1/2 33/1/2
f 32/2/2 26/2/2 33/2/2
f 27/2/2 28/2/2 34/2/2
f 33/1/2 27/1/2 34/1/2
f 28/1/2 29/1/2 35/1/2
f 34/2/2 28/2/2 35/2/2
f 29/2/2 30/2/2 36/2/2
f 35/1/2 29/1/2 36/1/2
f 30/1/2 31/1/2 37/1/2
f 36/2/2 30/2/2 37/2/2
f 31/2/2 25/2/2 38/2/2
f 37/1/2 31/1/2 38/1/2
f 38/2/2 25/2/2 39/2/2
f 43/2/3 41/2/3 40/2/3
f 43/1/3 42/1/3 41/1/3
f 44/1/3 42/1/3 43/1/3
f 45/2/3 43/2/3 40/2/3
f 45/2/3 44/2/3 43/2/3
f 46/2/3 44/2/3 45/2/3
f 47/2/4 48/2/4 49/2/4
f 49/2/4 48/2/4 50/2/4
f 53/2/5 52/2/5 51/2/5
f 54/2/5 52/2/5 53/2/5
f 55/1/6 56/1/6 58/1/6
f 56/2/6 57/2/6 59/2/6
f 58/1/6 56/1/6 59/1/6
f 59/2/6 57/2/6 60/2/6
f 60/2/6 57/2/6 61/2/6
f 58/2/6 59/2/6 62/2/6
f 59/2/6 60/2/6 62/2/6
f 60/1/6 61/1/6 62/1/6
f 61/2/6 57/2/6 63/2/6
f 62/1/6 61/1/6 63/1/6
f 63/2/6 57/2/6 64/2/6
f 64/2/6 57/2/6 65/2/6
f 62/2/6 63/2/6 66/2/6
f 63/2/6 64/2/6 66/2/6
f 64/1/6 65/1/6 66/1/6
f 66/1/6 65/1/6 67/1/6
f 62/2/6 66/2/6 68/2/6
f 66/2/6 67/2/6 68/2/6
f 68/2/6 67/2/6 69/2/6
f 58/2/6 62/2/6 70/2/6
f 62/2/6 68/2/6 70/2/6
f 70/2/6 68/2/6 71/2/6
f 68/1/6 69/1/6 72/1/6
f 71/2/6 68/2/6 72/2/6
f 69/2/6 67/2/6 73/2/6
f 72/1/6 69/1/6 73/1/6
f 70/1/6 71/1/6 74/1/6
f 71/2/6 72/2/6 75/2/6
f 74/1/6 71/1/6 75/1/6
f 72/2/6 73/2/6 75/2/6
f 73/2/6 67/2/6 76/2/6
f 75/2/6 73/2/6 76/2/6
f 76/2/6 67/2/6 77/2/6
f 74/2/6 75/2/6 78/2/6
f 75/2/6 76/2/6 78/2/6
f 76/1/6 77/1/6 78/1/6
f 78/1/6 77/1/6 79/1/6
f 74/2/6 78/2/6 80/2/6
f 78/2/6 79/2/6 80/2/6
f 80/2/6 79/2/6 81/2/6
f 80/1/6 81/1/6 82/1/6
f 81/2/6 79/2/6 83/2/6
f 82/1/6 81/1/6 83/1/6
f 82/2/6 83/2/6 84/2/6
f 83/2/6 79/2/6 84/2/6
f 84/2/6 79/2/6 85/2/6
f 82/2/6 84/2/6 86/2/6
f 84/1/6 85/1/6 86/1/6
f 86/1/6 85/1/6 87/1/6
f 82/2/6 86/2/6 88/2/6
f 86/2/6 87/2/6 88/2/6
f 88/2/6 87/2/6 89/2/6
f 88/1/6 89/1/6 90/1/6
f 89/2/6 87/2/6 91/2/6
f 90/1/6 89/1/6 91/1/6
f 90/2/6 91/2/6 92/2/6
f 91/2/6 87/2/6 92/2/6
f 92/2/6 87/2/6 93/2/6
f 90/2/6 92/2/6 94/2/6
f 94/2/6 92/2/6 95/2/6
f 92/1/6 93/1/6 96/1/6
f 95/2/6 92/2/6 96/2/6
f 93/2/6 87/2/6 97/2/6
f 96/1/6 93/1/6 97/1/6
f 94/1/6 95/1/6 98/1/6
f 95/2/6 96/2/6 99/2/6
f 98/1/6 95/1/6 99/1/6
f 96/2/6 97/2/6 99/2/6
f 97/2/6 87/2/6 100/2/6
f 99/2/6 97/2/6 100/2/6
f 98/2/6 99/2/6 100/2/6
f 100/2/6 87/2/6 101/2/6
f 98/2/6 100/2/6 102/2/6
f 100/1/6 101/1/6 102/1/6
f 101/2/6 87/2/6 103/2/6
f 102/1/6 101/1/6 103/1/6
f 98/2/6 102/2/6 104/2/6
f 102/2/6 103/2/6 104/2/6
f 104/2/6 103/2/6 105/2/6
f 98/2/6 104/2/6 106/2/6
f 104/1/6 105/1/6 106/1/6
f 105/2/6 103/2/6 107/2/6
f 106/1/6 105/1/6 107/1/6
f 98/2/6 106/2/6 108/2/6
f 106/2/6 107/2/6 108/2/6
f 103/2/6 87/2/6 109/2/6
f 108/2/6 107/2/6 109/2/6
f 107/2/6 103/2/6 109/2/6
