ply
format ascii 1.0
comment : 
comment : MagicaVoxel @ Ephtracy
element vertex 450
property float x
property float y
property float z
property uchar red
property uchar green
property uchar blue
element face 360
property list uchar int vertex_index
end_header
1.5 1.5 2 113 144 20
2.5 1.5 2 113 144 20
2.5 2.5 2 113 144 20
1.5 2.5 2 113 144 20
2 2 2 113 144 20
1.5 -2.5 2 127 169 34
2.5 -2.5 2 127 169 34
2.5 -1.5 2 127 169 34
1.5 -1.5 2 127 169 34
2 -2 2 127 169 34
-2.5 1.5 2 113 144 20
-1.5 1.5 2 113 144 20
-1.5 2.5 2 113 144 20
-2.5 2.5 2 113 144 20
-2 2 2 113 144 20
-2.5 -2.5 2 113 144 20
-1.5 -2.5 2 113 144 20
-1.5 -1.5 2 113 144 20
-2.5 -1.5 2 113 144 20
-2 -2 2 113 144 20
-2.5 0.5 2 113 144 20
-1.5 0.5 2 113 144 20
-1.5 1.5 2 113 144 20
-2.5 1.5 2 113 144 20
-2 1 2 113 144 20
-2.5 -0.5 2 113 144 20
-1.5 -0.5 2 113 144 20
-1.5 0.5 2 113 144 20
-2.5 0.5 2 113 144 20
-2 0 2 113 144 20
-2.5 -1.5 2 113 144 20
-1.5 -1.5 2 113 144 20
-1.5 -0.5 2 113 144 20
-2.5 -0.5 2 113 144 20
-2 -1 2 113 144 20
-1.5 -0.5 2 113 144 20
-0.5 -0.5 2 113 144 20
-0.5 0.5 2 113 144 20
-1.5 0.5 2 113 144 20
-1 0 2 113 144 20
-1.5 -1.5 2 127 169 34
-0.5 -1.5 2 127 169 34
-0.5 -0.5 2 127 169 34
-1.5 -0.5 2 127 169 34
-1 -1 2 127 169 34
-1.5 0.5 2 113 144 20
-0.5 0.5 2 113 144 20
-0.5 1.5 2 113 144 20
-1.5 1.5 2 113 144 20
-1 1 2 113 144 20
-1.5 -2.5 2 113 144 20
-0.5 -2.5 2 113 144 20
-0.5 -1.5 2 113 144 20
-1.5 -1.5 2 113 144 20
-1 -2 2 113 144 20
-1.5 1.5 2 113 144 20
-0.5 1.5 2 113 144 20
-0.5 2.5 2 113 144 20
-1.5 2.5 2 113 144 20
-1 2 2 113 144 20
-0.5 -0.5 2 113 144 20
0.5 -0.5 2 113 144 20
0.5 0.5 2 113 144 20
-0.5 0.5 2 113 144 20
0 0 2 113 144 20
-0.5 -1.5 2 113 144 20
0.5 -1.5 2 113 144 20
0.5 -0.5 2 113 144 20
-0.5 -0.5 2 113 144 20
0 -1 2 113 144 20
-0.5 0.5 2 113 144 20
0.5 0.5 2 113 144 20
0.5 1.5 2 113 144 20
-0.5 1.5 2 113 144 20
0 1 2 113 144 20
-0.5 -2.5 2 113 144 20
0.5 -2.5 2 113 144 20
0.5 -1.5 2 113 144 20
-0.5 -1.5 2 113 144 20
0 -2 2 113 144 20
-0.5 1.5 2 113 144 20
0.5 1.5 2 113 144 20
0.5 2.5 2 113 144 20
-0.5 2.5 2 113 144 20
0 2 2 113 144 20
0.5 0.5 2 113 144 20
1.5 0.5 2 113 144 20
1.5 1.5 2 113 144 20
0.5 1.5 2 113 144 20
1 1 2 113 144 20
0.5 -0.5 2 113 144 20
1.5 -0.5 2 113 144 20
1.5 0.5 2 113 144 20
0.5 0.5 2 113 144 20
1 0 2 113 144 20
0.5 1.5 2 127 169 34
1.5 1.5 2 127 169 34
1.5 2.5 2 127 169 34
0.5 2.5 2 127 169 34
1 2 2 127 169 34
0.5 -1.5 2 113 144 20
1.5 -1.5 2 113 144 20
1.5 -0.5 2 113 144 20
0.5 -0.5 2 113 144 20
1 -1 2 113 144 20
0.5 -2.5 2 113 144 20
1.5 -2.5 2 113 144 20
1.5 -1.5 2 113 144 20
0.5 -1.5 2 113 144 20
1 -2 2 113 144 20
1.5 -0.5 2 113 144 20
2.5 -0.5 2 113 144 20
2.5 0.5 2 113 144 20
1.5 0.5 2 113 144 20
2 0 2 113 144 20
1.5 -1.5 2 113 144 20
2.5 -1.5 2 113 144 20
2.5 -0.5 2 113 144 20
1.5 -0.5 2 113 144 20
2 -1 2 113 144 20
1.5 0.5 2 113 144 20
2.5 0.5 2 113 144 20
2.5 1.5 2 113 144 20
1.5 1.5 2 113 144 20
2 1 2 113 144 20
2.5 1.5 1 70 89 12
2.5 2.5 1 70 89 12
2.5 2.5 2 72 93 13
2.5 1.5 2 72 93 13
2.5 2 1.5 71 91 12
2.5 1.5 0 67 85 12
2.5 2.5 0 67 86 12
2.5 2.5 1 70 89 12
2.5 1.5 1 70 89 12
2.5 2 0.5 68 87 12
2.5 -2.5 1 79 105 21
2.5 -1.5 1 79 105 21
2.5 -1.5 2 82 109 22
2.5 -2.5 2 82 109 22
2.5 -2 1.5 80 107 21
2.5 -2.5 0 67 86 12
2.5 -1.5 0 67 86 12
2.5 -1.5 1 70 89 12
2.5 -2.5 1 70 89 12
2.5 -2 0.5 68 88 12
2.5 -0.5 1 70 89 12
2.5 0.5 1 70 89 12
2.5 0.5 2 72 93 13
2.5 -0.5 2 73 93 13
2.5 0 1.5 71 91 12
2.5 -0.5 0 67 86 12
2.5 0.5 0 67 85 12
2.5 0.5 1 70 89 12
2.5 -0.5 1 70 89 12
2.5 0 0.5 68 87 12
2.5 -1.5 1 70 89 12
2.5 -0.5 1 70 89 12
2.5 -0.5 2 73 93 13
2.5 -1.5 2 73 93 13
2.5 -1 1.5 71 91 12
2.5 0.5 1 70 89 12
2.5 1.5 1 70 89 12
2.5 1.5 2 72 93 13
2.5 0.5 2 72 93 13
2.5 1 1.5 71 91 12
2.5 -1.5 0 67 86 12
2.5 -0.5 0 67 86 12
2.5 -0.5 1 70 89 12
2.5 -1.5 1 70 89 12
2.5 -1 0.5 68 87 12
2.5 0.5 0 67 85 12
2.5 1.5 0 67 85 12
2.5 1.5 1 70 89 12
2.5 0.5 1 70 89 12
2.5 1 0.5 68 87 12
1.5 2.5 1 65 84 11
1.5 2.5 2 68 87 12
2.5 2.5 2 68 87 12
2.5 2.5 1 65 84 11
2 2.5 1.5 66 85 12
1.5 2.5 0 62 80 11
1.5 2.5 1 65 84 11
2.5 2.5 1 65 84 11
2.5 2.5 0 62 80 11
2 2.5 0.5 64 82 11
-2.5 2.5 1 65 84 11
-2.5 2.5 2 68 87 12
-1.5 2.5 2 68 87 12
-1.5 2.5 1 65 84 11
-2 2.5 1.5 67 85 12
-2.5 2.5 0 62 80 11
-2.5 2.5 1 65 84 11
-1.5 2.5 1 65 84 11
-1.5 2.5 0 62 80 11
-2 2.5 0.5 64 82 11
-1.5 2.5 0 62 80 11
-1.5 2.5 1 65 84 11
-0.5 2.5 1 65 84 11
-0.5 2.5 0 62 80 11
-1 2.5 0.5 64 82 11
-1.5 2.5 1 65 84 11
-1.5 2.5 2 68 87 12
-0.5 2.5 2 68 87 12
-0.5 2.5 1 65 84 11
-1 2.5 1.5 67 85 12
-0.5 2.5 0 62 80 11
-0.5 2.5 1 65 84 11
0.5 2.5 1 65 84 11
0.5 2.5 0 62 80 11
0 2.5 0.5 64 82 11
-0.5 2.5 1 65 84 11
-0.5 2.5 2 68 87 12
0.5 2.5 2 68 87 12
0.5 2.5 1 65 84 11
0 2.5 1.5 67 85 12
0.5 2.5 0 62 80 11
0.5 2.5 1 65 84 11
1.5 2.5 1 65 84 11
1.5 2.5 0 62 80 11
1 2.5 0.5 64 82 11
0.5 2.5 1 74 98 20
0.5 2.5 2 76 102 20
1.5 2.5 2 76 101 20
1.5 2.5 1 73 98 20
1 2.5 1.5 75 100 20
1.5 1.5 0 11 14 2
1.5 2.5 0 11 14 2
2.5 2.5 0 11 14 2
2.5 1.5 0 11 14 2
2 2 0 11 14 2
-2.5 1.5 0 11 14 2
-2.5 2.5 0 11 14 2
-1.5 2.5 0 11 14 2
-1.5 1.5 0 11 14 2
-2 2 0 11 14 2
-2.5 -2.5 0 11 14 2
-2.5 -1.5 0 11 14 2
-1.5 -1.5 0 11 14 2
-1.5 -2.5 0 11 14 2
-2 -2 0 11 14 2
1.5 -2.5 0 11 14 2
1.5 -1.5 0 11 14 2
2.5 -1.5 0 11 14 2
2.5 -2.5 0 11 14 2
2 -2 0 11 14 2
-2.5 0.5 0 11 14 2
-2.5 1.5 0 11 14 2
-1.5 1.5 0 11 14 2
-1.5 0.5 0 11 14 2
-2 1 0 11 14 2
-2.5 -0.5 0 11 14 2
-2.5 0.5 0 11 14 2
-1.5 0.5 0 11 14 2
-1.5 -0.5 0 11 14 2
-2 0 0 11 14 2
-2.5 -1.5 0 11 14 2
-2.5 -0.5 0 11 14 2
-1.5 -0.5 0 11 14 2
-1.5 -1.5 0 11 14 2
-2 -1 0 11 14 2
-1.5 -0.5 0 11 14 2
-1.5 0.5 0 11 14 2
-0.5 0.5 0 11 14 2
-0.5 -0.5 0 11 14 2
-1 0 0 11 14 2
-1.5 -1.5 0 11 14 2
-1.5 -0.5 0 11 14 2
-0.5 -0.5 0 11 14 2
-0.5 -1.5 0 11 14 2
-1 -1 0 11 14 2
-1.5 0.5 0 11 14 2
-1.5 1.5 0 11 14 2
-0.5 1.5 0 11 14 2
-0.5 0.5 0 11 14 2
-1 1 0 11 14 2
-1.5 -2.5 0 11 14 2
-1.5 -1.5 0 11 14 2
-0.5 -1.5 0 11 14 2
-0.5 -2.5 0 11 14 2
-1 -2 0 11 14 2
-1.5 1.5 0 11 14 2
-1.5 2.5 0 11 14 2
-0.5 2.5 0 11 14 2
-0.5 1.5 0 11 14 2
-1 2 0 11 14 2
-0.5 -0.5 0 11 14 2
-0.5 0.5 0 11 14 2
0.5 0.5 0 11 14 2
0.5 -0.5 0 11 14 2
0 0 0 11 14 2
-0.5 -1.5 0 11 14 2
-0.5 -0.5 0 11 14 2
0.5 -0.5 0 11 14 2
0.5 -1.5 0 11 14 2
0 -1 0 11 14 2
-0.5 0.5 0 11 14 2
-0.5 1.5 0 11 14 2
0.5 1.5 0 11 14 2
0.5 0.5 0 11 14 2
0 1 0 11 14 2
-0.5 -2.5 0 11 14 2
-0.5 -1.5 0 11 14 2
0.5 -1.5 0 11 14 2
0.5 -2.5 0 11 14 2
0 -2 0 11 14 2
-0.5 1.5 0 11 14 2
-0.5 2.5 0 11 14 2
0.5 2.5 0 11 14 2
0.5 1.5 0 11 14 2
0 2 0 11 14 2
0.5 0.5 0 11 14 2
0.5 1.5 0 11 14 2
1.5 1.5 0 11 14 2
1.5 0.5 0 11 14 2
1 1 0 11 14 2
0.5 -0.5 0 11 14 2
0.5 0.5 0 11 14 2
1.5 0.5 0 11 14 2
1.5 -0.5 0 11 14 2
1 0 0 11 14 2
0.5 1.5 0 11 14 2
0.5 2.5 0 11 14 2
1.5 2.5 0 11 14 2
1.5 1.5 0 11 14 2
1 2 0 11 14 2
0.5 -1.5 0 11 14 2
0.5 -0.5 0 11 14 2
1.5 -0.5 0 11 14 2
1.5 -1.5 0 11 14 2
1 -1 0 11 14 2
0.5 -2.5 0 11 14 2
0.5 -1.5 0 11 14 2
1.5 -1.5 0 11 14 2
1.5 -2.5 0 11 14 2
1 -2 0 11 14 2
1.5 -0.5 0 11 14 2
1.5 0.5 0 11 14 2
2.5 0.5 0 11 14 2
2.5 -0.5 0 11 14 2
2 0 0 11 14 2
1.5 -1.5 0 11 14 2
1.5 -0.5 0 11 14 2
2.5 -0.5 0 11 14 2
2.5 -1.5 0 11 14 2
2 -1 0 11 14 2
1.5 0.5 0 11 14 2
1.5 1.5 0 11 14 2
2.5 1.5 0 11 14 2
2.5 0.5 0 11 14 2
2 1 0 11 14 2
-2.5 1.5 1 67 86 12
-2.5 1.5 2 70 90 12
-2.5 2.5 2 70 90 12
-2.5 2.5 1 67 86 12
-2.5 2 1.5 68 88 12
-2.5 1.5 0 64 82 11
-2.5 1.5 1 67 86 12
-2.5 2.5 1 67 86 12
-2.5 2.5 0 64 82 11
-2.5 2 0.5 66 84 11
-2.5 -2.5 0 64 82 11
-2.5 -2.5 1 67 86 12
-2.5 -1.5 1 67 86 12
-2.5 -1.5 0 64 82 11
-2.5 -2 0.5 66 84 11
-2.5 -2.5 1 67 86 12
-2.5 -2.5 2 70 90 12
-2.5 -1.5 2 70 90 12
-2.5 -1.5 1 67 86 12
-2.5 -2 1.5 69 88 12
-2.5 0.5 1 67 86 12
-2.5 0.5 2 70 90 12
-2.5 1.5 2 70 90 12
-2.5 1.5 1 67 86 12
-2.5 1 1.5 68 88 12
-2.5 0.5 0 64 82 11
-2.5 0.5 1 67 86 12
-2.5 1.5 1 67 86 12
-2.5 1.5 0 64 82 11
-2.5 1 0.5 65 84 11
-2.5 -0.5 1 67 86 12
-2.5 -0.5 2 70 90 12
-2.5 0.5 2 70 90 12
-2.5 0.5 1 67 86 12
-2.5 0 1.5 68 88 12
-2.5 -0.5 0 64 82 11
-2.5 -0.5 1 67 86 12
-2.5 0.5 1 67 86 12
-2.5 0.5 0 64 82 11
-2.5 0 0.5 65 84 11
-2.5 -1.5 1 67 86 12
-2.5 -1.5 2 70 90 12
-2.5 -0.5 2 70 90 12
-2.5 -0.5 1 67 86 12
-2.5 -1 1.5 69 88 12
-2.5 -1.5 0 64 82 11
-2.5 -1.5 1 67 86 12
-2.5 -0.5 1 67 86 12
-2.5 -0.5 0 64 82 11
-2.5 -1 0.5 65 84 11
1.5 -2.5 1 80 106 21
2.5 -2.5 1 80 106 21
2.5 -2.5 2 84 112 22
1.5 -2.5 2 84 112 22
2 -2.5 1.5 82 109 22
-2.5 -2.5 0 67 86 12
-1.5 -2.5 0 67 86 12
-1.5 -2.5 1 71 91 12
-2.5 -2.5 1 71 91 12
-2 -2.5 0.5 69 88 12
1.5 -2.5 0 67 86 12
2.5 -2.5 0 67 86 12
2.5 -2.5 1 71 91 12
1.5 -2.5 1 71 91 12
2 -2.5 0.5 69 88 12
-2.5 -2.5 1 71 91 12
-1.5 -2.5 1 71 91 12
-1.5 -2.5 2 74 95 13
-2.5 -2.5 2 74 95 13
-2 -2.5 1.5 73 93 13
-1.5 -2.5 0 67 86 12
-0.5 -2.5 0 67 86 12
-0.5 -2.5 1 71 91 12
-1.5 -2.5 1 71 91 12
-1 -2.5 0.5 69 88 12
-1.5 -2.5 1 71 91 12
-0.5 -2.5 1 71 91 12
-0.5 -2.5 2 74 95 13
-1.5 -2.5 2 74 95 13
-1 -2.5 1.5 73 93 13
-0.5 -2.5 0 67 86 12
0.5 -2.5 0 67 86 12
0.5 -2.5 1 71 91 12
-0.5 -2.5 1 71 91 12
0 -2.5 0.5 69 88 12
-0.5 -2.5 1 71 91 12
0.5 -2.5 1 71 91 12
0.5 -2.5 2 74 95 13
-0.5 -2.5 2 74 95 13
0 -2.5 1.5 73 93 13
0.5 -2.5 0 67 86 12
1.5 -2.5 0 67 86 12
1.5 -2.5 1 71 91 12
0.5 -2.5 1 71 91 12
1 -2.5 0.5 69 88 12
0.5 -2.5 1 71 91 12
1.5 -2.5 1 71 91 12
1.5 -2.5 2 74 95 13
0.5 -2.5 2 74 95 13
1 -2.5 1.5 73 93 13
3 4 0 1
3 4 1 2
3 4 2 3
3 4 3 0
3 9 5 6
3 9 6 7
3 9 7 8
3 9 8 5
3 14 10 11
3 14 11 12
3 14 12 13
3 14 13 10
3 19 15 16
3 19 16 17
3 19 17 18
3 19 18 15
3 24 20 21
3 24 21 22
3 24 22 23
3 24 23 20
3 29 25 26
3 29 26 27
3 29 27 28
3 29 28 25
3 34 30 31
3 34 31 32
3 34 32 33
3 34 33 30
3 39 35 36
3 39 36 37
3 39 37 38
3 39 38 35
3 44 40 41
3 44 41 42
3 44 42 43
3 44 43 40
3 49 45 46
3 49 46 47
3 49 47 48
3 49 48 45
3 54 50 51
3 54 51 52
3 54 52 53
3 54 53 50
3 59 55 56
3 59 56 57
3 59 57 58
3 59 58 55
3 64 60 61
3 64 61 62
3 64 62 63
3 64 63 60
3 69 65 66
3 69 66 67
3 69 67 68
3 69 68 65
3 74 70 71
3 74 71 72
3 74 72 73
3 74 73 70
3 79 75 76
3 79 76 77
3 79 77 78
3 79 78 75
3 84 80 81
3 84 81 82
3 84 82 83
3 84 83 80
3 89 85 86
3 89 86 87
3 89 87 88
3 89 88 85
3 94 90 91
3 94 91 92
3 94 92 93
3 94 93 90
3 99 95 96
3 99 96 97
3 99 97 98
3 99 98 95
3 104 100 101
3 104 101 102
3 104 102 103
3 104 103 100
3 109 105 106
3 109 106 107
3 109 107 108
3 109 108 105
3 114 110 111
3 114 111 112
3 114 112 113
3 114 113 110
3 119 115 116
3 119 116 117
3 119 117 118
3 119 118 115
3 124 120 121
3 124 121 122
3 124 122 123
3 124 123 120
3 129 125 126
3 129 126 127
3 129 127 128
3 129 128 125
3 134 130 131
3 134 131 132
3 134 132 133
3 134 133 130
3 139 135 136
3 139 136 137
3 139 137 138
3 139 138 135
3 144 140 141
3 144 141 142
3 144 142 143
3 144 143 140
3 149 145 146
3 149 146 147
3 149 147 148
3 149 148 145
3 154 150 151
3 154 151 152
3 154 152 153
3 154 153 150
3 159 155 156
3 159 156 157
3 159 157 158
3 159 158 155
3 164 160 161
3 164 161 162
3 164 162 163
3 164 163 160
3 169 165 166
3 169 166 167
3 169 167 168
3 169 168 165
3 174 170 171
3 174 171 172
3 174 172 173
3 174 173 170
3 179 175 176
3 179 176 177
3 179 177 178
3 179 178 175
3 184 180 181
3 184 181 182
3 184 182 183
3 184 183 180
3 189 185 186
3 189 186 187
3 189 187 188
3 189 188 185
3 194 190 191
3 194 191 192
3 194 192 193
3 194 193 190
3 199 195 196
3 199 196 197
3 199 197 198
3 199 198 195
3 204 200 201
3 204 201 202
3 204 202 203
3 204 203 200
3 209 205 206
3 209 206 207
3 209 207 208
3 209 208 205
3 214 210 211
3 214 211 212
3 214 212 213
3 214 213 210
3 219 215 216
3 219 216 217
3 219 217 218
3 219 218 215
3 224 220 221
3 224 221 222
3 224 222 223
3 224 223 220
3 229 225 226
3 229 226 227
3 229 227 228
3 229 228 225
3 234 230 231
3 234 231 232
3 234 232 233
3 234 233 230
3 239 235 236
3 239 236 237
3 239 237 238
3 239 238 235
3 244 240 241
3 244 241 242
3 244 242 243
3 244 243 240
3 249 245 246
3 249 246 247
3 249 247 248
3 249 248 245
3 254 250 251
3 254 251 252
3 254 252 253
3 254 253 250
3 259 255 256
3 259 256 257
3 259 257 258
3 259 258 255
3 264 260 261
3 264 261 262
3 264 262 263
3 264 263 260
3 269 265 266
3 269 266 267
3 269 267 268
3 269 268 265
3 274 270 271
3 274 271 272
3 274 272 273
3 274 273 270
3 279 275 276
3 279 276 277
3 279 277 278
3 279 278 275
3 284 280 281
3 284 281 282
3 284 282 283
3 284 283 280
3 289 285 286
3 289 286 287
3 289 287 288
3 289 288 285
3 294 290 291
3 294 291 292
3 294 292 293
3 294 293 290
3 299 295 296
3 299 296 297
3 299 297 298
3 299 298 295
3 304 300 301
3 304 301 302
3 304 302 303
3 304 303 300
3 309 305 306
3 309 306 307
3 309 307 308
3 309 308 305
3 314 310 311
3 314 311 312
3 314 312 313
3 314 313 310
3 319 315 316
3 319 316 317
3 319 317 318
3 319 318 315
3 324 320 321
3 324 321 322
3 324 322 323
3 324 323 320
3 329 325 326
3 329 326 327
3 329 327 328
3 329 328 325
3 334 330 331
3 334 331 332
3 334 332 333
3 334 333 330
3 339 335 336
3 339 336 337
3 339 337 338
3 339 338 335
3 344 340 341
3 344 341 342
3 344 342 343
3 344 343 340
3 349 345 346
3 349 346 347
3 349 347 348
3 349 348 345
3 354 350 351
3 354 351 352
3 354 352 353
3 354 353 350
3 359 355 356
3 359 356 357
3 359 357 358
3 359 358 355
3 364 360 361
3 364 361 362
3 364 362 363
3 364 363 360
3 369 365 366
3 369 366 367
3 369 367 368
3 369 368 365
3 374 370 371
3 374 371 372
3 374 372 373
3 374 373 370
3 379 375 376
3 379 376 377
3 379 377 378
3 379 378 375
3 384 380 381
3 384 381 382
3 384 382 383
3 384 383 380
3 389 385 386
3 389 386 387
3 389 387 388
3 389 388 385
3 394 390 391
3 394 391 392
3 394 392 393
3 394 393 390
3 399 395 396
3 399 396 397
3 399 397 398
3 399 398 395
3 404 400 401
3 404 401 402
3 404 402 403
3 404 403 400
3 409 405 406
3 409 406 407
3 409 407 408
3 409 408 405
3 414 410 411
3 414 411 412
3 414 412 413
3 414 413 410
3 419 415 416
3 419 416 417
3 419 417 418
3 419 418 415
3 424 420 421
3 424 421 422
3 424 422 423
3 424 423 420
3 429 425 426
3 429 426 427
3 429 427 428
3 429 428 425
3 434 430 431
3 434 431 432
3 434 432 433
3 434 433 430
3 439 435 436
3 439 436 437
3 439 437 438
3 439 438 435
3 444 440 441
3 444 441 442
3 444 442 443
3 444 443 440
3 449 445 446
3 449 446 447
3 449 447 448
3 449 448 445
