# MagicaVoxel @ Ephtracy

# material
mtllib magika.mtl
usemtl palette

# normals
vn -1 0 0
vn 1 0 0
vn 0 0 1
vn 0 0 -1
vn 0 -1 0
vn 0 1 0

# texcoords
vt 0.818359 0.5
vt 0.822266 0.5

# verts
v -2.5 0 2.5
v -2.5 0 -2.5
v -2.5 2 2.5
v -2.5 2 -2.5
v 2.5 0 2.5
v 2.5 0 -2.5
v 2.5 1 2.5
v 2.5 1 1.5
v 2.5 2 2.5
v 2.5 2 1.5
v 2.5 2 -2.5
v -2.5 0 2.5
v -2.5 2 2.5
v 1.5 1 2.5
v 1.5 2 2.5
v 2.5 0 2.5
v 2.5 1 2.5
v 2.5 2 2.5
v -2.5 0 -2.5
v -2.5 2 -2.5
v 0.5 1 -2.5
v 0.5 2 -2.5
v 1.5 1 -2.5
v 1.5 2 -2.5
v 2.5 0 -2.5
v 2.5 2 -2.5
v -2.5 0 2.5
v 2.5 0 2.5
v -2.5 0 -2.5
v 2.5 0 -2.5
v -2.5 2 2.5
v 1.5 2 2.5
v 2.5 2 2.5
v -1.5 2 1.5
v -0.5 2 1.5
v 1.5 2 1.5
v 2.5 2 1.5
v -1.5 2 0.5
v -0.5 2 0.5
v 0.5 2 -1.5
v 1.5 2 -1.5
v -2.5 2 -2.5
v 0.5 2 -2.5
v 1.5 2 -2.5
v 2.5 2 -2.5

# faces
f 3/2/1 2/2/1 1/2/1
f 4/2/1 2/2/1 3/2/1
f 5/2/2 6/2/2 7/2/2
f 7/2/2 6/2/2 8/2/2
f 7/1/2 8/1/2 9/1/2
f 8/2/2 6/2/2 10/2/2
f 9/1/2 8/1/2 10/1/2
f 10/2/2 6/2/2 11/2/2
f 14/2/3 13/2/3 12/2/3
f 15/2/3 13/2/3 14/2/3
f 16/2/3 14/2/3 12/2/3
f 17/1/3 15/1/3 14/1/3
f 17/2/3 14/2/3 16/2/3
f 18/1/3 15/1/3 17/1/3
f 19/2/4 20/2/4 21/2/4
f 21/2/4 20/2/4 22/2/4
f 19/2/4 21/2/4 23/2/4
f 21/1/4 22/1/4 23/1/4
f 23/1/4 22/1/4 24/1/4
f 19/2/4 23/2/4 25/2/4
f 23/2/4 24/2/4 25/2/4
f 25/2/4 24/2/4 26/2/4
f 29/2/5 28/2/5 27/2/5
f 30/2/5 28/2/5 29/2/5
f 31/2/6 32/2/6 34/2/6
f 34/2/6 32/2/6 35/2/6
f 32/1/6 33/1/6 36/1/6
f 35/2/6 32/2/6 36/2/6
f 36/1/6 33/1/6 37/1/6
f 34/1/6 35/1/6 38/1/6
f 31/2/6 34/2/6 38/2/6
f 36/2/6 37/2/6 39/2/6
f 38/1/6 35/1/6 39/1/6
f 35/2/6 36/2/6 39/2/6
f 38/2/6 39/2/6 40/2/6
f 39/2/6 37/2/6 40/2/6
f 40/2/6 37/2/6 41/2/6
f 31/2/6 38/2/6 42/2/6
f 38/2/6 40/2/6 42/2/6
f 40/1/6 41/1/6 43/1/6
f 42/2/6 40/2/6 43/2/6
f 41/2/6 37/2/6 44/2/6
f 43/1/6 41/1/6 44/1/6
f 44/2/6 37/2/6 45/2/6
